<?xml version="1.0" encoding="UTF-8" standalone="no"?>
<!DOCTYPE svg PUBLIC "-//W3C//DTD SVG 1.1//EN" "http://www.w3.org/Graphics/SVG/1.1/DTD/svg11.dtd">
<svg width="100%" height="100%" viewBox="0 0 2400 600" version="1.1" xmlns="http://www.w3.org/2000/svg" xmlns:xlink="http://www.w3.org/1999/xlink" xml:space="preserve" xmlns:serif="http://www.serif.com/" style="fill-rule:evenodd;clip-rule:evenodd;stroke-linejoin:round;stroke-miterlimit:2;">
    <g transform="matrix(1.66667,0,0,1.66667,-400,-950)">
        <path d="M511.23,600L855,600C879.836,600 900,620.164 900,645L900,675.2C891.468,672.94 882.835,671.156 874.102,669.846C863.198,668.21 852.449,667.392 841.857,667.392C828.305,667.392 815.259,668.833 802.719,671.715C790.179,674.597 779.042,679.114 769.306,685.267C759.57,691.42 751.781,699.326 745.94,708.984C740.099,718.641 737.178,730.169 737.178,743.565C737.178,753.379 738.463,761.868 741.033,769.034C743.603,776.199 747.342,782.508 752.249,787.96C757.156,793.412 763.231,798.202 770.474,802.33C777.718,806.458 786.09,810.313 795.592,813.896C801.512,816.233 807.665,818.336 814.051,820.205C820.438,822.074 826.319,824.177 831.693,826.514C837.067,828.85 841.467,831.576 844.894,834.692C848.321,837.807 850.035,841.701 850.035,846.375C850.035,853.696 846.257,859.148 838.702,862.731C831.147,866.314 820.828,868.105 807.743,868.105C796.994,868.105 785.584,866.314 773.512,862.731C761.439,859.148 749.328,853.696 737.178,846.375L737.178,900L636.237,900L636.237,798.241C636.237,777.991 640.755,761.985 649.79,750.224C658.824,738.463 671.364,732.583 687.409,732.583C699.247,732.583 709.606,734.997 718.485,739.826L718.485,671.832C714.124,669.963 708.048,669.028 700.26,669.028C669.884,669.028 648.855,685.228 637.172,717.629L636.237,717.629L636.237,673.234L562.401,673.234L562.401,900L511.23,900L511.23,831.654C486.774,845.985 459.825,853.151 430.384,853.151C399.541,853.151 375.007,843.532 356.782,824.294C338.557,805.056 329.444,779.237 329.444,746.836C329.444,713.034 339.102,686.241 358.418,666.458C377.733,646.675 403.124,636.783 434.59,636.783C463.252,636.783 488.799,643.481 511.23,656.878L511.23,600ZM900,791.149C895.007,786.889 889.256,783.1 882.747,779.782C874.803,775.732 865.924,771.993 856.11,768.566C850.658,766.697 845.167,764.867 839.637,763.075C834.107,761.284 829.083,759.259 824.566,757C820.049,754.742 816.388,752.055 813.584,748.939C810.78,745.824 809.378,742.085 809.378,737.723C809.378,734.452 810.313,731.532 812.182,728.961C814.051,726.391 816.622,724.288 819.893,722.653C823.164,721.017 826.942,719.771 831.225,718.914C835.509,718.057 840.065,717.629 844.894,717.629C855.175,717.629 865.651,718.992 876.321,721.718C884.614,723.837 892.508,726.779 900,730.544L900,791.149Z" style="fill:rgb(255,0,92);"/>
    </g>
</svg>
